<svg xmlns="http://www.w3.org/2000/svg" width="20" height="20" viewBox="0 0 20 20" fill="none">
  <path d="M7.60711 17.3105V14.7624C7.60711 14.1119 8.13827 13.5846 8.79349 13.5846H11.1886C11.5033 13.5846 11.805 13.7087 12.0275 13.9296C12.25 14.1504 12.375 14.45 12.375 14.7624V17.3105C12.373 17.5809 12.4798 17.8409 12.6718 18.0328C12.8637 18.2247 13.1248 18.3327 13.3972 18.3327H15.0313C15.7945 18.3346 16.5271 18.0351 17.0674 17.5C17.6078 16.965 17.9115 16.2385 17.9115 15.4809V8.22173C17.9114 7.60973 17.6382 7.02922 17.1653 6.63657L11.6065 2.22924C10.6395 1.45648 9.25405 1.48143 8.31595 2.2885L2.88397 6.63657C2.38874 7.01764 2.09275 7.59988 2.07812 8.22173V15.4735C2.07812 17.0526 3.36761 18.3327 4.95827 18.3327H6.55503C7.12081 18.3327 7.58062 17.8795 7.58472 17.3179L7.60711 17.3105Z" stroke="#05192C" stroke-opacity="0.6" stroke-width="1.25"/>
</svg>