<svg width="20" height="21" viewBox="0 0 20 21" fill="none" xmlns="http://www.w3.org/2000/svg">
<g id="map-pin/20px" opacity="0.6">
<path id="Vector" d="M16 9.16797C16 13.8346 10 17.8346 10 17.8346C10 17.8346 4 13.8346 4 9.16797C4 7.57667 4.63214 6.05055 5.75736 4.92533C6.88258 3.80011 8.4087 3.16797 10 3.16797C11.5913 3.16797 13.1174 3.80011 14.2426 4.92533C15.3679 6.05055 16 7.57667 16 9.16797Z" stroke="#05192C" stroke-opacity="0.6" stroke-width="1.2" stroke-linecap="round" stroke-linejoin="round"/>
<path id="Vector_2" d="M10 11.168C11.1046 11.168 12 10.2725 12 9.16797C12 8.0634 11.1046 7.16797 10 7.16797C8.89543 7.16797 8 8.0634 8 9.16797C8 10.2725 8.89543 11.168 10 11.168Z" stroke="#05192C" stroke-opacity="0.6" stroke-width="1.2" stroke-linecap="round" stroke-linejoin="round"/>
</g>
</svg>
